<?xml version="1.0" encoding="utf-8"?>
<!-- Generator: Adobe Illustrator 18.0.0, SVG Export Plug-In . SVG Version: 6.00 Build 0)  -->
<!DOCTYPE svg PUBLIC "-//W3C//DTD SVG 1.1//EN" "http://www.w3.org/Graphics/SVG/1.1/DTD/svg11.dtd">
<svg version="1.1" id="Layer_1" xmlns="http://www.w3.org/2000/svg" xmlns:xlink="http://www.w3.org/1999/xlink" x="0px" y="0px"
	 viewBox="0 0 350 70.2" enable-background="new 0 0 350 70.2" xml:space="preserve">
<g>
	<path fill="#64686E" d="M23.7,56.7c12.2-3.9,18.2,2.4,22,12.4c-0.7,1.3-2.2,0.6-3.4,0.6c-9.1,0.1-18.3-0.2-27.4,0.1
		c-6.3,0.3-6.9-5.3-9.8-8.5c-2.3-2.6,0.8-4.2,1.9-5.9c7.8-11.6,15.9-23,23.7-34.6c1.8-2.6,2.6-3.1,4.7-0.1
		C45.6,35.9,56.1,50.9,66.4,66c0.6,0.9,1.9,1.8,1.4,3c-0.7,1.5-2.4,0.6-3.6,0.8c-9.1,1.7-15.3-1.4-19.6-9.9
		c-3.1-6.1-7.7-11.5-11.9-17.6c-3.2,4.6-6,8.7-8.8,12.8C23.8,55.6,23.8,56.2,23.7,56.7z"/>
	<path fill="#63676D" d="M77.7,69.8c-2.9,0.7-4.7-1-6.5-3.6c-6.4-9.5-12.9-19-19.6-28.3c-1.9-2.7-1.8-4.5,0.1-7
		c2.7-3.4,5-7.1,7.4-10.6c1.1-1.7,2-1.9,3.3-0.1c8.7,12.6,17.4,25.2,26,37.8c0.5,0.7,0.9,1.3,0.7,2.3C88.5,64.3,82.2,69.8,77.7,69.8
		z"/>
	<path fill="#6E7278" d="M213.1,33.4c-6.1,5.7-11.4,10.3-16.4,15.2c-3,2.9-5.4,3.1-8.5,0.1c-5-4.9-10.2-9.5-16.4-15.2
		c0,6.2,0,11.3,0,16.5c0,2.5,0,5,0,7.5c0,2.1-1.3,2.4-2.9,2.4c-1.5,0-2.7-0.3-2.7-2.1c0-9.8-0.1-19.7,0.1-29.5
		c0.1-2.5,4-2.8,6.8-0.3c5.3,4.8,10.7,9.6,15.6,14.7c2.9,3,4.6,2.9,7.4,0c4.7-4.9,9.9-9.4,14.8-14.2c1.9-1.9,4-2.7,6.3-1.9
		c2.6,0.9,1.4,3.5,1.4,5.3c0.1,7.7,0.1,15.3,0,23c0,2,1.4,5-2.7,5.1c-4.1,0.1-2.8-2.9-2.9-4.9C213,48.2,213.1,41.4,213.1,33.4z"/>
	<path fill="#5BC3B4" d="M261,42.1c0-4,0-8,0-12c0-3.1,1.3-5.3,4.7-5.2c3.1,0.1,4.5,2.1,4.3,5c-0.3,3.5,1.1,4,4.3,3.9
		c8.2-0.1,13.5,5.4,13.7,13.8c0,2.5,0.1,5-0.1,7.5c-0.2,2.7-1.3,4.9-4.6,4.8c-3.1-0.1-4.3-2.1-4.3-5c0-2.3,0-4.7,0-7
		c-0.1-3-1.2-5.4-4.6-5.3c-3.4,0.1-4.4,2.5-4.3,5.5c0,2.2,0,4.3,0,6.5c0.1,3.1-1,5.3-4.5,5.2c-3.4-0.1-4.5-2.3-4.5-5.4
		C261,50.4,261,46.3,261,42.1z"/>
	<path fill="#5AC3B4" d="M318.9,39.1c0,3.2,0.2,6.3-0.1,9.5c-0.5,5.7-5.3,10.6-10.9,11.4c-6,0.9-11.4-1.8-14.1-7.1
		c-2.7-5.3-1.8-11.4,2.6-15.5c1.1-1,2.3-2.5,3.8-2c1.9,0.5,0.9,2.5,1,3.9c0.2,2.3-0.1,4.7,0.1,7c0.2,2.8,1.5,4.9,4.6,4.8
		c3.1-0.1,4.2-2.2,4.2-5c0-5,0-10-0.1-14.9c0-3.1,0.6-5.9,4.4-6c4.1-0.1,4.8,2.8,4.7,6.1c-0.1,2.7,0,5.3,0,8
		C319,39.1,319,39.1,318.9,39.1z"/>
	<path fill="#686B72" d="M149.1,59.2c-4.2,1.7-6.5,0.1-8-3.1c-1.9-4.1-4.9-5.5-9.5-5.2c-5.3,0.4-10.6,0.4-15.9,0
		c-4.2-0.3-6.9,1-8.7,4.8c-1.5,3-3.6,5.3-7.5,3.7c-0.6-1.5,0.7-2.4,1.4-3.4c6-8.9,12.1-17.9,18.2-26.8c3.1-4.6,6.5-4.7,9.6-0.2
		C135.4,39,142.2,49,149.1,59.2z M134,45.8c-3.1-4.5-5.8-8.6-8.5-12.7c-0.9-1.3-1.7-2.1-2.9-0.3c-2.8,4.2-5.6,8.4-8.7,12.9
		C120.9,45.8,127.1,45.8,134,45.8z"/>
	<path fill="#5BC3B4" d="M338.4,60c-6.1,0.4-10.9-2-13.4-7.5c-2.1-4.6-1.8-9.4,1.5-13.6c3.8-4.9,9.2-5.7,14.8-5.3
		c2.5,0.2,4.6,1.5,4.7,4.3c0.1,3.1-2.1,4.3-4.8,4.7c-1.5,0.2-3,0.1-4.5,0.2c-2.3,0.2-3.7,1.4-3.8,3.8c-0.1,2.5,1.2,4.1,3.7,4.5
		c1.3,0.2,2.7,0.1,4,0.1c2.9,0.2,5.4,1.2,5.3,4.6c-0.1,3.4-2.4,4.5-5.5,4.3C339.7,60,339.1,60,338.4,60z"/>
	<path fill="#63676E" d="M58.4,14.7c-1.3,1.9-2.4,3.8-3.6,5.5c-2.6,3.4-4.4,9.6-7.6,9.7c-3.4,0.1-4.8-6.4-7.8-9.5
		c-4-4.2-3.8-7.9,0.1-11.9c0.7-0.7,1.2-1.6,1.7-2.4c5.7-8.2,5.7-8.2,11.5,0.2C54.6,9.1,56.4,11.8,58.4,14.7z"/>
	<path fill="#7A7D83" d="M242.7,42.5c0,8,0,15.9,0,23.9c0,1.3,0.8,3.5-1.5,3.5c-2.4,0-1.4-2.2-1.4-3.5c-0.1-15.9-0.1-31.9,0-47.8
		c0-1.3-0.9-3.5,1.4-3.5c2.3,0,1.5,2.2,1.6,3.5C242.8,26.6,242.7,34.5,242.7,42.5z"/>
	<path fill="#73777D" d="M154.1,42.8c0-4.3,0-8.6,0-13c0-1.9-0.1-3.6,2.7-3.7c2.5,0,3.1,1.1,3,3.4c-0.1,9-0.1,17.9,0,26.9
		c0,2.1-0.4,3.4-3,3.4c-2.8,0-2.8-1.6-2.8-3.6C154.2,51.8,154.1,47.3,154.1,42.8z"/>
</g>
</svg>
